<svg id="visual" viewBox="0 0 960 540" width="960" height="540" xmlns="http://www.w3.org/2000/svg" xmlns:xlink="http://www.w3.org/1999/xlink" version="1.1"><g stroke-width="1" stroke-linejoin="bevel"><path d="M445.7 323L409.7 284L338 398Z" fill="#f6f6f6" stroke="#f6f6f6"></path><path d="M236.3 322L320 412L338 398Z" fill="#f6f6f6" stroke="#f6f6f6"></path><path d="M338 398L413.7 440L445.7 323Z" fill="#e7e7e7" stroke="#e7e7e7"></path><path d="M320 412L413.7 440L338 398Z" fill="#f6f6f6" stroke="#f6f6f6"></path><path d="M409.7 284L328 261L338 398Z" fill="#eeeeee" stroke="#eeeeee"></path><path d="M328 261L236.3 322L338 398Z" fill="#e7e7e7" stroke="#e7e7e7"></path><path d="M328 261L214.3 289L236.3 322Z" fill="#ebebeb" stroke="#ebebeb"></path><path d="M538.3 479L565.3 337L445.7 323Z" fill="#e7e7e7" stroke="#e7e7e7"></path><path d="M445.7 323L526.3 212L409.7 284Z" fill="#f6f6f6" stroke="#f6f6f6"></path><path d="M565.3 337L563.3 285L445.7 323Z" fill="#f6f6f6" stroke="#f6f6f6"></path><path d="M409.7 284L396.7 150L328 261Z" fill="#f7f7f7" stroke="#f7f7f7"></path><path d="M526.3 212L396.7 150L409.7 284Z" fill="#f5f5f5" stroke="#f5f5f5"></path><path d="M328 261L211.3 183L214.3 289Z" fill="#f6f6f6" stroke="#f6f6f6"></path><path d="M563.3 285L526.3 212L445.7 323Z" fill="#ebebeb" stroke="#ebebeb"></path><path d="M284 540L416.7 540L413.7 440Z" fill="#e4e4e4" stroke="#e4e4e4"></path><path d="M413.7 440L538.3 479L445.7 323Z" fill="#f6f6f6" stroke="#f6f6f6"></path><path d="M284 540L413.7 440L320 412Z" fill="#e7e7e7" stroke="#e7e7e7"></path><path d="M396.7 150L301 158L328 261Z" fill="#f6f6f6" stroke="#f6f6f6"></path><path d="M416.7 540L538.3 479L413.7 440Z" fill="#f6f6f6" stroke="#f6f6f6"></path><path d="M144.7 321L207.3 462L236.3 322Z" fill="#f7f7f7" stroke="#f7f7f7"></path><path d="M236.3 322L207.3 462L320 412Z" fill="#e7e7e7" stroke="#e7e7e7"></path><path d="M207.3 462L284 540L320 412Z" fill="#f8f8f8" stroke="#f8f8f8"></path><path d="M301 158L211.3 183L328 261Z" fill="#eeeeee" stroke="#eeeeee"></path><path d="M214.3 289L144.7 321L236.3 322Z" fill="#f7f7f7" stroke="#f7f7f7"></path><path d="M207.3 462L244.3 540L284 540Z" fill="#f6f6f6" stroke="#f6f6f6"></path><path d="M104.7 257L144.7 321L214.3 289Z" fill="#ebebeb" stroke="#ebebeb"></path><path d="M505.3 60L388.7 99L396.7 150Z" fill="#f2f2f2" stroke="#f2f2f2"></path><path d="M396.7 150L357 92L301 158Z" fill="#f2f2f2" stroke="#f2f2f2"></path><path d="M301 158L241.3 91L211.3 183Z" fill="#eeeeee" stroke="#eeeeee"></path><path d="M388.7 99L357 92L396.7 150Z" fill="#f2f2f2" stroke="#f2f2f2"></path><path d="M416.7 540L557.3 540L538.3 479Z" fill="#f2f2f2" stroke="#f2f2f2"></path><path d="M538.3 479L652 418L565.3 337Z" fill="#f2f2f2" stroke="#f2f2f2"></path><path d="M623 540L652 418L538.3 479Z" fill="#e7e7e7" stroke="#e7e7e7"></path><path d="M565.3 337L663 242L563.3 285Z" fill="#eeeeee" stroke="#eeeeee"></path><path d="M563.3 285L663 242L526.3 212Z" fill="#f2f2f2" stroke="#f2f2f2"></path><path d="M652 418L659 383L565.3 337Z" fill="#f7f7f7" stroke="#f7f7f7"></path><path d="M144.7 321L109.7 438L207.3 462Z" fill="#f6f6f6" stroke="#f6f6f6"></path><path d="M207.3 462L145.7 540L244.3 540Z" fill="#e7e7e7" stroke="#e7e7e7"></path><path d="M211.3 183L104.7 257L214.3 289Z" fill="#f8f8f8" stroke="#f8f8f8"></path><path d="M144.7 321L0 320L109.7 438Z" fill="#e7e7e7" stroke="#e7e7e7"></path><path d="M357 92L241.3 91L301 158Z" fill="#ebebeb" stroke="#ebebeb"></path><path d="M211.3 183L96.7 184L104.7 257Z" fill="#ebebeb" stroke="#ebebeb"></path><path d="M659 383L663 242L565.3 337Z" fill="#f5f5f5" stroke="#f5f5f5"></path><path d="M526.3 212L505.3 60L396.7 150Z" fill="#e4e4e4" stroke="#e4e4e4"></path><path d="M109.7 438L145.7 540L207.3 462Z" fill="#f6f6f6" stroke="#f6f6f6"></path><path d="M557.3 540L623 540L538.3 479Z" fill="#f7f7f7" stroke="#f7f7f7"></path><path d="M388.7 99L348 0L357 92Z" fill="#f7f7f7" stroke="#f7f7f7"></path><path d="M357 92L348 0L241.3 91Z" fill="#f6f6f6" stroke="#f6f6f6"></path><path d="M608 55L505.3 60L526.3 212Z" fill="#f6f6f6" stroke="#f6f6f6"></path><path d="M122.7 54L96.7 184L211.3 183Z" fill="#f7f7f7" stroke="#f7f7f7"></path><path d="M104.7 257L0 320L144.7 321Z" fill="#ebebeb" stroke="#ebebeb"></path><path d="M663 242L661 170L526.3 212Z" fill="#e4e4e4" stroke="#e4e4e4"></path><path d="M623 540L708.7 454L652 418Z" fill="#f2f2f2" stroke="#f2f2f2"></path><path d="M652 418L708.7 454L659 383Z" fill="#f7f7f7" stroke="#f7f7f7"></path><path d="M659 383L748.7 251L663 242Z" fill="#f6f6f6" stroke="#f6f6f6"></path><path d="M663 242L748.7 251L661 170Z" fill="#f2f2f2" stroke="#f2f2f2"></path><path d="M432.7 0L348 0L388.7 99Z" fill="#f6f6f6" stroke="#f6f6f6"></path><path d="M241.3 91L122.7 54L211.3 183Z" fill="#e7e7e7" stroke="#e7e7e7"></path><path d="M572.3 0L432.7 0L505.3 60Z" fill="#e7e7e7" stroke="#e7e7e7"></path><path d="M505.3 60L432.7 0L388.7 99Z" fill="#f7f7f7" stroke="#f7f7f7"></path><path d="M661 170L608 55L526.3 212Z" fill="#e4e4e4" stroke="#e4e4e4"></path><path d="M708.7 454L751.7 388L659 383Z" fill="#f2f2f2" stroke="#f2f2f2"></path><path d="M751.7 388L748.7 251L659 383Z" fill="#e4e4e4" stroke="#e4e4e4"></path><path d="M661 170L706.7 123L608 55Z" fill="#e7e7e7" stroke="#e7e7e7"></path><path d="M0 257L0 320L104.7 257Z" fill="#f2f2f2" stroke="#f2f2f2"></path><path d="M109.7 438L0 540L145.7 540Z" fill="#f7f7f7" stroke="#f7f7f7"></path><path d="M348 0L214.3 0L241.3 91Z" fill="#ebebeb" stroke="#ebebeb"></path><path d="M96.7 184L0 257L104.7 257Z" fill="#f8f8f8" stroke="#f8f8f8"></path><path d="M214.3 0L122.7 54L241.3 91Z" fill="#f6f6f6" stroke="#f6f6f6"></path><path d="M0 165L0 257L96.7 184Z" fill="#e4e4e4" stroke="#e4e4e4"></path><path d="M731.7 143L706.7 123L661 170Z" fill="#f6f6f6" stroke="#f6f6f6"></path><path d="M676 0L572.3 0L608 55Z" fill="#f8f8f8" stroke="#f8f8f8"></path><path d="M608 55L572.3 0L505.3 60Z" fill="#f5f5f5" stroke="#f5f5f5"></path><path d="M0 320L0 453L109.7 438Z" fill="#e7e7e7" stroke="#e7e7e7"></path><path d="M748.7 251L731.7 143L661 170Z" fill="#ebebeb" stroke="#ebebeb"></path><path d="M706.7 123L676 0L608 55Z" fill="#f6f6f6" stroke="#f6f6f6"></path><path d="M0 80L0 165L96.7 184Z" fill="#ebebeb" stroke="#ebebeb"></path><path d="M0 453L0 540L109.7 438Z" fill="#f7f7f7" stroke="#f7f7f7"></path><path d="M751.7 388L815.3 325L748.7 251Z" fill="#ebebeb" stroke="#ebebeb"></path><path d="M748.7 251L875.3 182L731.7 143Z" fill="#f7f7f7" stroke="#f7f7f7"></path><path d="M823.3 459L815.3 325L751.7 388Z" fill="#f2f2f2" stroke="#f2f2f2"></path><path d="M214.3 0L102.7 0L122.7 54Z" fill="#e4e4e4" stroke="#e4e4e4"></path><path d="M122.7 54L0 80L96.7 184Z" fill="#eeeeee" stroke="#eeeeee"></path><path d="M623 540L783.7 540L708.7 454Z" fill="#f5f5f5" stroke="#f5f5f5"></path><path d="M708.7 454L823.3 459L751.7 388Z" fill="#f6f6f6" stroke="#f6f6f6"></path><path d="M736.7 0L706.7 123L731.7 143Z" fill="#eeeeee" stroke="#eeeeee"></path><path d="M736.7 0L676 0L706.7 123Z" fill="#f6f6f6" stroke="#f6f6f6"></path><path d="M783.7 540L823.3 459L708.7 454Z" fill="#f7f7f7" stroke="#f7f7f7"></path><path d="M102.7 0L0 80L122.7 54Z" fill="#e4e4e4" stroke="#e4e4e4"></path><path d="M960 326L863.3 281L815.3 325Z" fill="#e7e7e7" stroke="#e7e7e7"></path><path d="M815.3 325L863.3 281L748.7 251Z" fill="#f2f2f2" stroke="#f2f2f2"></path><path d="M890.3 99L736.7 0L731.7 143Z" fill="#f2f2f2" stroke="#f2f2f2"></path><path d="M102.7 0L0 0L0 80Z" fill="#ebebeb" stroke="#ebebeb"></path><path d="M863.3 281L875.3 182L748.7 251Z" fill="#f7f7f7" stroke="#f7f7f7"></path><path d="M783.7 540L871.3 540L823.3 459Z" fill="#e7e7e7" stroke="#e7e7e7"></path><path d="M823.3 459L960 326L815.3 325Z" fill="#f6f6f6" stroke="#f6f6f6"></path><path d="M863.3 281L960 205L875.3 182Z" fill="#eeeeee" stroke="#eeeeee"></path><path d="M960 98L890.3 99L875.3 182Z" fill="#f6f6f6" stroke="#f6f6f6"></path><path d="M875.3 182L890.3 99L731.7 143Z" fill="#e4e4e4" stroke="#e4e4e4"></path><path d="M960 453L960 326L823.3 459Z" fill="#f8f8f8" stroke="#f8f8f8"></path><path d="M960 326L960 268L863.3 281Z" fill="#e4e4e4" stroke="#e4e4e4"></path><path d="M871.3 540L960 453L823.3 459Z" fill="#f7f7f7" stroke="#f7f7f7"></path><path d="M960 0L864.3 0L890.3 99Z" fill="#f6f6f6" stroke="#f6f6f6"></path><path d="M890.3 99L864.3 0L736.7 0Z" fill="#f5f5f5" stroke="#f5f5f5"></path><path d="M960 268L960 205L863.3 281Z" fill="#ebebeb" stroke="#ebebeb"></path><path d="M871.3 540L960 540L960 453Z" fill="#eeeeee" stroke="#eeeeee"></path><path d="M960 205L960 98L875.3 182Z" fill="#f7f7f7" stroke="#f7f7f7"></path><path d="M960 98L960 0L890.3 99Z" fill="#ebebeb" stroke="#ebebeb"></path></g></svg>