<svg width="83" height="68" viewBox="0 0 83 68" fill="none" xmlns="http://www.w3.org/2000/svg">
<path d="M30.7152 29.6564L22.3631 24.8578L14 29.6564V39.2316L22.3631 44.0193L30.7152 39.2316V29.6564ZM28.9168 38.2018L22.3631 41.9486L15.8095 38.2018V30.6862L22.3631 26.9284L28.9168 30.6862V38.2018Z" fill="#414042"/>
<path d="M48.7676 29.6455L40.739 24.8578L32.721 29.6455V39.2207L40.739 44.0193L48.7676 39.2207V29.6455Z" fill="#414042"/>
<path d="M59.1255 24.8578L50.7734 29.6564V39.2316L59.1255 44.0193L67.4886 39.2316V29.6564L59.1255 24.8578ZM65.6793 38.2018L59.1255 41.9486L52.5718 38.2018V30.6862L59.1255 26.9284L65.6793 30.6862V38.2018Z" fill="#414042"/>
<path d="M23.3605 45.5141V55.0895L31.7346 59.8771L40.0757 55.0895V45.5141L31.7346 40.7156L23.3605 45.5141ZM38.2466 54.0925L31.7346 57.8064L25.1235 54.0925V46.544L31.7346 42.7862L38.2687 46.544L38.2466 54.0925Z" fill="#414042"/>
<path d="M41.4129 45.5141V55.0895L49.7649 59.8771L58.1281 55.0895V45.5141L49.7649 40.7156L41.4129 45.5141ZM56.3186 54.0925L49.7649 57.8393L43.2224 54.0925V46.544L49.7649 42.7862L56.3186 46.544V54.0925Z" fill="#414042"/>
<path d="M40.0757 23.3738V13.7657L31.7457 9L23.3605 13.7657V23.341L31.7457 28.1615L40.0757 23.3738ZM25.1259 14.8613L31.7457 11.0706L38.2663 14.8613V22.3769L31.7457 26.0909L25.1259 22.344V14.8613Z" fill="#414042"/>
<path d="M58.1281 23.4067V13.7986L49.7649 9L41.4129 13.7986V23.3738L49.7649 28.1615L58.1281 23.4067ZM43.2224 14.8941L49.7649 11.1364L56.3186 14.8941V22.4097L49.7649 26.1566L43.2224 22.4097V14.8941Z" fill="#414042"/>
</svg>

