<?xml version="1.0" encoding="utf-8"?>
<!-- Generator: Adobe Illustrator 23.1.0, SVG Export Plug-In . SVG Version: 6.00 Build 0)  -->
<svg version="1.1" id="Layer_1" xmlns="http://www.w3.org/2000/svg" xmlns:xlink="http://www.w3.org/1999/xlink" x="0px" y="0px"
	 viewBox="0 0 1070 540.8" style="enable-background:new 0 0 1070 540.8;" xml:space="preserve">
<style type="text/css">
	.st0{fill:#FF4164;}
	.st1{fill:#234B86;}
	.st2{fill:#FFFFFF;}
	.st3{fill:#FFFFFD;}
</style>
<g>
	<g>
		<path class="st0" d="M986.1,335.1c-36.7-39.3-47.7-87-50.9-110c-0.3-4.5-0.8-9.2-1.4-13.8c0,0,0,0,0,0c-0.3-2-0.5-4.1-0.9-6.1
			c-0.7-4.3-1.4-8.7-3.3-12.6c-1.7-3.4-4.3-6.3-7-9.1c-11.2-11.8-23.6-22.5-37.1-31.8c-6.8-4.7-14.5-10-15.6-18
			c-5.3-2-18.7-7.9-18.7-7.9l1.5,4.3c0,0,3.5,11.8,5.1,17.6c1.1,3.9,2.2,7.9,2,12c-0.3,8.1-4.9,10.8-11.7,13.8
			c-7.1,3.1-11.6,7.5-20.1,7.3c-8.9-0.2-16.6-5.2-22-11.7c-3.6-4.2-5.4-17.5-6-18.8c-1.9-3.5-8.2-13.9-8.2-13.9s-9-3.1-16-5.5
			c-4.7-1.6-5.4-7.5-6.4-12.2c-0.2-0.9-0.4-1.8-0.7-2.7c-2.8-0.3-8.7,1.9-9.8,2.2c-5.2,1.5-9.6,2.6-13.5,6.6
			c-1.2,1.3-2.4,2.7-4.1,3.2c-0.9,0.3-1.9,0.2-2.8,0.2c-3.5-0.1-7.3,0.4-10.1,2.5c-1.3,1-2.4,2.3-3.4,3.5
			c-6.5,8.1-11.3,12.6-13.6,22.8c-1.6,7-3.8,13.9-5.2,21c-3.1,15.6-5.4,31.7-12.1,46.3c-10.3-10.9-34.4-15.6-52.2-19
			c-15.6-3-62.4,3.8-62.4,3.8s3.3,15,2.3,16.4c-1.1,1.5-6.4,4.7-8.8,5.9c-1.1,0.8-2.3,1.5-3.8,1.9c-1.5,0.4-3.2,0.4-4.8,0.3
			c-6.4-0.4-11.8-2.8-17.1-6c-4-2.4-5.6-5.6-6.8-9.6c-4.3,2.6-8.1,6.1-12,9.3c-7.9,6.4-17,11.5-26.7,14.9c-4.5,1.6-9.2,2.9-13.2,5.6
			c-2.6-0.6-3.8-3.5-4.6-5.9c-4.2-11.7-11.3-20.7-19.2-30.3c-2.3-2.7-3.8-6-6.8-8.2c-4.6-3.3-11.2-4.7-16.4-6.7
			c-5.7-2.3-11.6-4.7-16.5-8.4c-1-0.8-10.8-11.4-8.4-12.5c-9.8,4.4-16.6,14.4-16.9,24.7c-10.2-7.7-24.2-8.9-36-14.2
			c-11.8-5.3-22.1-19.2-15-29.7c-11.5-3-24.1,8.7-21.3,19.8c-2.8-8.3-13-12.8-22.1-11.8c-9.1,0.9-17.1,6-24.1,11.6
			c-6.2,5-12.2,10.7-19.8,13.4c-7.6,2.7-17.7,1.3-21.6-5.5c17,32,11.8,71.5-4.6,103.8c-16.3,32.3-42.5,58.9-68.3,85
			c-2.7,2.7-5.7,5.6-9.6,5.8c-11.2,0.8-11.5-17.6-21.2-23c-6.8-3.8-92,30.3-121.6,30.3c-13.4,0-14.6,0-14.6,0l0,154.9h483.1H1070
			V385.9C1070,385.9,1023.8,375.5,986.1,335.1z"/>
		<path class="st1" d="M453.5,54.7c-0.1-2.3-0.2-4.5-0.2-6.5c-0.2-7,2.3-17.4-2.8-22.4c-4.2-4.1-10.4-5.8-16.3-5.7
			c-5.9,0-11.8,1.6-17.5,3.1c-12.4,3.3-29.1,8.9-41.1,13.5c-13.7,5.2-26.1,24.2-28.1,37.7c-1.9,12.9,1.1,26.1,6.5,38.1
			c0.8,1.8,2.2,4.8,3.8,8.2c4.8,9.8,12.2,23.2,18.3,24.2c9.4,1.5,20.8-15.5,24.5-21.6c3.6-6,6.7-12.4,10.1-18.6
			c11-3.4,21.3-9.3,29.5-17.3c4.3-4.2,8-9,10.8-14.3C453.5,68.2,453.7,61,453.5,54.7z"/>
		<path class="st2" d="M370.4,136.2c0.4-3.6,0.7-7.3,0.8-10.9c0-2.4,0-5-1.2-7.2c-1.7-3-5.1-4.5-7.3-7.1c-3-3.4-3.7-8.2-3.8-12.7
			c-0.1-2.6,0-5.5,1.7-7.5c2.3-2.8,8.2-1.5,11.2-0.3c4.2,1.7,8.3,7.8,11.4,10.9c0.3,0.3,0.6,0.6,1,0.6c0.4,0,0.7-0.2,0.9-0.4
			c2.5-2.2,2.3-5.9,2-9.2c-0.3-3.2-0.3-7,2.4-9c2-1.5,5.1-1.7,6.2-3.8c0.4-0.8,0.4-1.7,0.4-2.6c0-3.5-0.1-6.9-0.1-10.4
			c0-1.8,0-3.8,1.3-5.1c0.9-1,2.4-1.4,3.7-1.8c6-1.8,12.2-4.3,18.4-5.2c6.3-0.9,12.6-0.3,18.7,1.2c3.3,0.8,6.6,1.7,9.3,3.5
			c3.2,2.2,3.9,5.1,5.1,8.3c1.4,3.8,2.4,7.5,2.1,11.5c-0.2,3.5-1.5,6.8-1.8,10.3c-0.3,4.4-0.3,9,0,13.4c0.3,4.7,3.3,8.5,1.7,13.5
			c-0.5,1.5-1.3,2.8-2,4.2c-3.3,5.8-6.1,11.8-8.5,18c-1.9,4.9-3,12.2-9,14.2c-2.1,0.7-4.4,0.5-6.6,1c-6.5,1.7-8.5,9.5-9.4,16
			c-0.9,6.7-1.8,13.5-2.7,20.2c-0.2,1.8-0.5,3.7,0.4,5.4c0.6,1.2,1.8,2.2,2.8,3.2c4.4,4.5,5.2,11.9,1.9,17.2
			c-2.3,3.7-6.1,6.2-9.8,8.6c-2.5,1.6-5.1,3.3-7.6,4.9c-4.4,2.8-9.1,5.7-14.4,6c-4.5,0.2-8.9-1.5-12.6-4
			c-11.4-7.8-16.1-21.7-18.6-34.9c-0.7-3.9-1.5-8.1-4.5-10.7c-5.7-5-8-5.7-7.9-13.8c0.1-4.3,0-8,3.3-11.3c3.6-3.5,9.2-4.7,13.2-7.8
			C367.6,148.3,369.6,142.7,370.4,136.2z"/>
		<path class="st1" d="M276.6,162.9c1-1.7,2.1-3.5,3.7-4.7c5.4-4,14.1-0.3,19.7-4c1.3-0.9,2.5-2.2,4.1-2.2c3.2-0.2,5.4,4.5,8.4,3.5
			c0.9-0.3,1.6-1.2,2.6-1.4c1.4-0.4,2.8,0.8,3.5,2.1c0.7,1.3,0.9,2.7,1.8,3.9c2.3,3.1,7.4,2.5,10.4,4.9c1.5,1.2,2.3,2.9,3.1,4.5
			c2.4,5.1,4.9,10.8,3.1,16.2c-0.5,1.6-1.5,3.1-3,3.9c-1.5,0.7-3.7,0.4-4.6-1c0.2,3-0.5,7-3.6,7.2c-0.4-1.1-0.7-2.2-1.1-3.3
			c-2-0.1-3.4,2.2-5.4,2.2c-1.7,0-3-1.6-3.3-3.2c-0.3-1.6,0.1-3.2,0-4.8c-0.1-2.5-1.2-4.8-2.4-7c-3.2-5.5-7.7-10.4-13.1-14
			c-0.7-0.5-1.6-0.9-2.3-0.6c-0.9,0.4-1.1,1.6-1.1,2.5c0,2.3,0,4.7,0.1,7c0,0.8,0,1.6-0.4,2.3c-1.1,1.7-3.7,1.3-5.8,1
			c-10.2-1.5-15.2,6.2-23.5,8.7C264.4,181.7,274,167.3,276.6,162.9z"/>
		<path class="st2" d="M522.6,184.4c-2.9-4.8-6.1-10.6-4.4-16.3c0.6-2.1,1.8-3.9,3.1-5.7c7.7-11.1,15.4-22.3,23.1-33.4
			c1-1.4,2.1-2.9,3.8-3.3c1.5-0.3,3.1,0.4,4.4,1.1c11.4,6,21.7,14.1,30.1,23.6c2.7,3,5.2,6.3,6.3,10.2c1.8,6.5-0.8,13.2-2.7,19.4
			c-1.1,3.5-3.3,6.4-3.9,9.9c-0.5,2.7-0.4,5.4-0.6,8.2c-0.4,5.2-5.5,8.8-9.9,11c-7.6,3.9-14,1.2-17.9,0.2c-7-1.9-12.9-6-19.1-9.5
			C528.6,196.2,524.4,187.3,522.6,184.4z"/>
		<path class="st0" d="M563.2,193.3c3.7-0.4,7.2-2.8,8.4-6.1c0.4-0.9,0.5-1.9,0.7-2.9c0.2-1.3,0.5-2.7,0.7-4
			c-1.4,2.2-2.8,4.4-4.9,5.9c-2.3,1.7-5.1,2.4-7.9,2.7c-1.7,0.2-3.3,0.1-5,0c-1.1-0.1-4.6-1.1-5.4-0.7c-2.3,1.1,1.7,2.9,2.8,3.3
			C555.9,192.7,559.7,193.6,563.2,193.3z"/>
		<path class="st0" d="M541.2,184.2c1.8,0.3,3.4,0.4,5.2-0.5c1.8-0.9,3.4-2.2,5.3-2.9c2.6-0.9,5.5-0.4,8.2-1
			c2.3-0.5,4.4-1.8,6.7-2.2c2.4-0.4,4.8,0.1,7.1,0.6c-0.1,1.1-1.7,1.1-2.8,1.3c-2.1,0.3-3.7,1.8-5.7,2.6c-2,0.7-7.2,1.8-9.3,1.7
			c-5-0.2-6.9,0.1-11.1,1.2C543.8,185.3,541.2,184.2,541.2,184.2z"/>
		<path class="st1" d="M226.1,55.5c-3.4-1.2-7.2-0.7-10.9-0.2c-18.8,2.8-39.5,6.6-50.9,21.1c-7.5,9.4-9.5,21.8-9.7,33.7
			c-0.2,11.9,1.3,23.8-0.1,35.5c-3,24-34.2,34.6-48.2,84.4c-9.3,32.9,19.4,53.5,26.6,51.8c-5.1-19.4-3.4-40.4,4.7-58.8
			c2.6-6,6.1-11.8,11.3-15.9c5.2-4.1,12.6-6.2,19-3.9c5.1,1.8,14,14.4,18.9,16.7c8.9,4.3,15.9,1,23.8-4.9
			c21.5-16.1,28.8-40,27.3-56.2c-1-10.7-13.9-18.8-12.3-29.5c0.8-5.2,5.1-9.2,8.3-13.5c8.3-10.7,9.1-22.7,7.2-35.4
			c-0.8-5.3,6.8-2.9,5.7-8.3C245,62.6,231.4,57.4,226.1,55.5z"/>
		<path class="st2" d="M267.3,94.8c2.7,1.3,5.8,2.2,7.9,4.3c2.1,2.1,2.9,5.9,0.5,7.7c-0.9,0.7-2.2,1-2.9,1.8
			c-1.6,1.7-0.5,4.3,0.6,6.2c-2.6,0.6-5.2,1.2-7.4,2.6c-2.2,1.4-3.8,3.9-3.4,6.4c0.5,2.7,3.2,4.6,6,5.1c2.8,0.5,5.7-0.1,8.5-0.7
			c-1,2,0.6,4.4,2.3,5.9c1.8,1.5,3.9,2.9,4.5,5.1c0.7,2.6-1.2,5.3-3.6,6.8c-2.4,1.5-5.3,2-7.9,3.1c-9.2,3.8-14.5,13.6-15.7,23.1
			c-0.3,2.3-0.4,4.7-1.2,7c-1.2,3.2-3.8,5.7-5.4,8.8c-2.7,5.2-2.6,11.6-6.4,16.1c-2.4,2.7-8.8,1.1-7.8-11.6c1-12.1,9.6-35.2,9.1-38
			c-0.8-4.4-10.8-6.6-13-10.5c-2.2-4-3.9-8.7-2.2-12.9c-2.5,1.8-6.4,0.8-8.5-1.4c-2.1-2.3-4.3-5.6-4.6-8.7c-0.2-2.3-0.2-4.8,1.4-6.5
			c1.6-1.7,6.8-1,7,1.3c3.3-6.5,5.9-13.4,8-20.4c0.3-1.1,0.7-2.3,0.7-3.5c0.2-7-10.3-11.2-9.5-17.7c0.6-4.6,6.9-5,10.6-4.4
			C248.8,72,255.2,89,267.3,94.8z"/>
		<path class="st1" d="M771.8,59.5c-2.4,0.7-4.2,2.6-6.7,2.9c-1.8,0.2-3.9-0.2-5.7-0.3c-3.1-0.1-8.8-0.8-11,1.9
			c-0.5,0.6-0.7,1.3-0.9,2.1c-1.8,7.6-0.4,15.8,3.9,22.4c1,1.5,2.4,3.1,4.2,2.9c0.8-0.1,1.5-0.5,2.2-0.9c5-3.5,6.5-9.9,7.4-15.8
			c0.2-1.3,1-3,2.3-2.6c0.5,0.2,0.8,0.6,1,1c1.5,2.5,1.6,5.6,3.1,8c1.5,2.4,4,3.9,6.6,5.1c2.6,1.2,5.7,2.2,8.4,1.1
			c2.4-1,3.8-3.5,4.5-6c1.1-3.7,1.3-7.7,0.4-11.5c-0.2-0.7-0.3-1.6,0.2-2.2c0.3-0.3,0.8-0.4,1.3-0.5c3.6-0.7,7.3-0.7,11-0.8
			c5.2-0.1,10.5-0.3,15.7-0.4c2.4-0.1,10.4,1.1,10.6-1.5c0.5-5.9-10.8-3.5-13.8-3.4c-7.4,0.3-14.8,0.6-22.1,0
			c-6.4-0.5-12.8-1.8-19.3-1.8C774.1,59.1,772.9,59.1,771.8,59.5z"/>
		<path class="st1" d="M866.4,54.2c0.8,4.4,1,8.8,0.8,13c-0.4,5.8-3.2,10-7,14.4c-3.5,3.9-7.8,7.3-10.1,11.9
			c-1.6,3.3-1.9,6.8-1.9,10.4c0,1.7,0.2,3.3-0.2,5c-0.2,0.9-1.5,1.9-1.1,3c-2.4-5.9-4.7-12.5-2.4-18.4c1.2-2.9,3.3-5.3,4.9-8
			c3.8-6.9,2.8-16.3-2.8-22.1c-8.5-8.8-14.7,0.2-16.2,8.8c-0.1,0.8-0.2,1.6-0.7,2.2c-1.1,1.3-3.2,1.1-4.9,0.7
			c-0.3-6.3-0.9-12.6-1.9-18.8c-1-6.4-3.7-9.3-8.4-13.7c-2.8-2.6-6.5-4.1-10.1-5.3c-6.6-2.3-13.8-4.1-20.6-5.5
			c-4.7-1-9.6,1.5-12.6,5.2c-2.2-0.6-3.8-2.4-4.7-4.4c-0.9-2-1.1-4.2-1.3-6.4c-0.4-6.2-1.4-16.4,2.4-21.9c2.1-3,6.3-3.9,10-4
			c5.6-0.2,11.2,0.6,16.4,2.5c14.9,5.3,31.4,6.2,45.8,13C854.4,22.5,863.7,38.5,866.4,54.2z"/>
		<path class="st1" d="M879.4,437.7c-8.8-0.6-17.6,0.1-26.5-0.1c-10.8-0.3-21.7-2-32-5c-1.5-0.4-3-0.9-4.6-0.8
			c-2.2,0.2-4,1.5-5.7,2.8c-8.3,6.1-14.5,13.6-22.8,19.7c-7,5.1-12.2,10.8-16.3,18.3c-2.3,4.2-10.9,14.4-13,24
			c-0.6,2.6-1.8,7.9-0.7,10.4c0.5,1.1,1.6,2,2.8,1.9c4-0.3,3.7-6.5,4.6-8.9c2.4-7.2,6.3-13.9,11.2-19.8c-0.2,0.2,0.2,2.5,0.2,3
			c-0.2,1.1-0.7,1.9-1.2,2.8c-1.2,2.3-2.2,4.6-3.1,6.9c-1.3,3.3-2.5,6.6-3.6,10c-1,3.3-0.9,6.5-0.9,9.9c0,0.9,0,1.8,0.2,2.6
			c0.3,1,0.9,1.9,1.8,2.5c0.7,0.5,1.6,0.7,2.4,0.6c1.4-0.3,2.1-1.8,2.6-3.1c1.5-4.2,3.6-8.4,4.7-12.7c0.3-1.4,0.4-2.8,0.7-4.1
			c0.8-4.8,3.1-9.4,6.6-12.9c-0.5,5.7-2.6,12.1-5.2,17.2c-0.8,1.6-1.2,3.4-1.5,5.2c-0.3,1.6-0.6,3.2-1,4.8c-0.2,1.1-0.4,2.4,0.3,3.3
			c0.4,0.4,0.9,0.7,1.5,0.8c4.7,1.1,8-4.5,9-8c2.2-7.9,4.3-15.9,6.5-23.8c-1.3,6.6-2.6,13.2-4,19.7c-0.4,2.2-0.6,5,1.4,6.1
			c1.8,1,4.1,0,5.5-1.4c4.4-4.4,4.1-11.3,6.2-17c3.8-10.4,15.3-16.7,20.1-26.7c16.1,8,36.2,4.8,52.7,11.9c9.4,4,17.5,11.3,27.6,13
			c2.9-3.7,5.3-7.8,7.1-12.1c1.3-3.1,2.2-6.4,2.2-9.8c0-5.2-2.5-10.2-2.2-15.4c0.1-2,0.6-4.1,0.3-6.1c-0.4-2.3-1.8-4.4-3.4-6.2
			c-6.2-7.4-14.2-13.5-23.1-17.6c-0.8-0.4-1.7-0.7-2.5-0.5c-1.2,0.3-1.9,1.6-2.4,2.7c-2.2,4.8-5.9,9-10.5,11.8
			c9.3,0.2,19.2,4.7,28.5,6.1C895.8,438.9,885.2,438.1,879.4,437.7z"/>
		<path class="st0" d="M262.8,126.6c0,0-1.7-3.8,1.1-5.8c2.7-2,9.1-7.2,9.1-7.2s2.1-0.2,1.9,1c-0.2,1.2-1.7,2.8-3.8,4
			C268.9,119.8,263.4,122,262.8,126.6z"/>
		<path class="st0" d="M265.1,128c0.2,0.3,1.2,0,1.5,0.1c0.8,0,1.5,0.4,2.3,0.5c1.7,0.4,3.5,0.7,5.3,0.5c1.1-0.1,2.1-0.5,3.1-0.6
			c0.9-0.1,2.2-0.2,2.7,0.7c0.5,0.9-0.1,1.3-1,1.4c-2.6,0.5-5.5,0.5-8.1,0.6C268.2,131.3,266.6,130.1,265.1,128z"/>
		<path class="st1" d="M542.8,142.1c2.1-5.2,2.4-20.1,10.8-26.4c6.9-5.2,17.8-5.4,23.8,3.5c4.7,7.1,7.6,9.4,10.1,17.5
			c1.7,5.8,3.5,11.7,5.2,17.5c2-15,3.8-31.1-3.5-44.4c-4.5-8.2-10.8-13.8-17.1-20.6c-5.7-6.1-11.4-8.8-19.6-11.5
			c-3.4-1.1-6.9-2.3-10.5-2.5c-5.2-0.4-10.3,1.2-14.7,3.7c-3.8,2.2-5.8,6.4-10.1,7.8c-1.5,0.5-3,0.7-4.5,1.1
			c-7.7,2.2-12,9.8-14.7,17c-5.2,13.7-9.3,29.5-4,43.7c4.7,12.6,14.6,29.4,28.6,29.2c3.3-6.7-13.3-21.4,2.5-27
			c3.2-1.2,6.8,1.8,10.9-0.2C539.1,148.7,541.6,145.3,542.8,142.1z"/>
		<path class="st1" d="M851.4,370.4c0.7,0.7,1.4,1.5,2,2.3c2.5,3.4,3.2,8.4,0.6,11.8c-1.9,2.5-4.8,4.1-6.7,6.5
			c-2.3,2.8-4.2,5.3-7.2,7.7c-5.4,4.3-14.1,20.9-21.4,16.7c-1.1-0.6-1.3-2.4-0.2-3c-1.5,2.1-3.2,4.4-5.8,5.3c-2.5,0.9-6.1-0.4-6.2-3
			c-0.1-1.4,0.7-2.6,1.5-3.7c-1.4,2-3.8,4-6.2,3.1c-1.9-0.7-2.6-3-2.1-4.9c0.5-1.9,1.9-3.4,3.2-4.8c-1.7,0.9-3.9-0.4-4.4-2.1
			c-1.2-4.2,5.4-8.4,8.1-10.9c1.9-1.7,3.5-3.8,5.1-5.9c3.5-4.6,4.6-6.2,8.1-10.7c0.6-0.8,1.3-1.8,1.1-2.8c-0.3-1.2-1.8-1.8-3-1.6
			c-1.3,0.2-2.3,1-3.3,1.7c-2.6,1.9-1.2,2-4.3,3.4c-1.6,0.7-3.3,1.1-5,1.4c-0.4,0.1-0.9,0.2-1.3,0.1c-0.8-0.1-1.5-0.8-1.7-1.6
			c-0.8-2.2,0.7-3.2,1.9-4.9c6.3-9,10.9-13.3,22.7-11.9c5.9,0.7,11.4,3.4,16.6,6.3C846.1,366.5,849,368.2,851.4,370.4z"/>
		<path class="st1" d="M726.8,278.9c10.9-1.5,22.3,5.3,25.9,15.2c0.4,1.1,0.7,2.2,1.2,3.3c0.4,0.8,0.8,1.6,1.1,2.4
			c0.4,1.3,0.1,2.8,1,3.9c0.4,0.5,0.9,0.8,1.4,1.2c3.7,3.1,1.8,9.2,4.2,13.4c0.8-4.5,5.2-8.2,10-8.3c0.6,0,1.3,0,1.9-0.2
			c0.5-0.2,0.6,8.5,0.6,8.5s3.6-4.5,5.6-9.9c1.9-4.9,3.4-14.7,3.7-19.9c0.1-3,0.3-6-0.6-8.8c-0.9-2.7-8.2-10.6-10.3-12.8
			c-4-4.1-8.5-7.7-13.4-10.7c-7.2-4.5-15.9-9.3-24.6-9.3c-3.5,0-7.2,0.1-10.4,1.5c-3.8,1.7-6.6,5-10.5,6.6c-4.1,1.7-8.8,1.2-13,2.6
			c-5.3,1.7-9.1,6.1-12.6,10.3c-2.8,3.3-5.5,6.6-7.6,10.4c-4.5,8.4-5.1,18.3-3.3,27.6c0.8,4.3,2.2,8.7,5.4,11.7
			c0.4,0.3,0.8,0.7,1.3,0.7c0.7,0,1.2-0.6,1.6-1.2c1.3-1.9,3.9,5.4,3.9,5.4s5.3-28.5,10.1-36.3c1.3-2,2.7-4,4.6-5.5
			c3-2.3,7.2-4,11.1-3.8c2.1,0.1,3.3,1.2,5.1,1.9C722.3,279.5,724.5,279.2,726.8,278.9z"/>
		<path class="st1" d="M757.4,345.3c0,0,7,4,10.4,7.9s13.5,15.4,14,18.2c0.5,2.8-1.3,7.6,1.6,13c2.9,5.4,3.4,7.4,3.4,7.4
			s-3.6,12.4-10.7,15.6c-7,3.3-14.5,2.2-14.5,2.2l0.9,6.5c0,0-5.1-0.4-7.8,2.8c-2.6,3.1-3.7,4.6-4.6,6.6c-0.9,2-1.6,4.1-3.2,7.2
			c-6.2,12.3-7.5,26.1-7.5,26.1s-3.1-20.6-5.8-24.5c-2.6-3.9-5.8-7.5-8.5-7.5c-2.7,0.1-9.8-0.5-9.8-0.5l-3.6-8.5c0,0-9.9,4-14.3,1.9
			c-4.3-2.2-12-9.8-12-9.8s1.4-8.5,2-9.3c0.7-0.9,3.6-10.6,3.6-14.3c0-3.7,2.5-11.9,5-15.6c2.5-3.7,8.7-11.2,8.7-11.2l12,26.4
			l15.2,10l5.7-25.8L757.4,345.3z"/>
		<path class="st3" d="M739.5,278c-4.8-1-8.7-1.8-13.4-0.8c-4.8,1-9.9-0.2-14.6-0.9c-4.2-0.6-6.7,0.4-10.1,2.8
			c-1.9,1.4-4.9,4.7-6,6.8c-4.3,8.2-5.9,23.2-6.9,33.2c-0.7-8.5-3.8-9.9-4.1-10.4c-2.2,3.1-1.8,7.1-1.3,10.8
			c0.6,4.9,1.4,9.7,2.2,14.6c0.2,1.4,0.5,2.8,1.5,3.8c1,1,2.8,1.4,3.8,0.4c0.7,9.8,6.5,18.5,13.2,25.9c1.9,2.1,3.9,4,6.2,5.6
			c6.7,4.5,15.7,5.1,23.5,2.9s14.7-6.9,20.6-12.3c2.8-2.6,5.6-5.7,6.1-9.4c0.3-2.4-0.3-4.8,0.3-7.2c0.8-3.2,3.9-6.1,3-9.3
			c0.6,1.3,2.6,0.5,3.6-0.6c5.7-5.9,8.6-14,8.1-21.9c-0.1-0.8-0.2-1.7-0.8-2.2c-0.8-0.6-1.2-1.7-5.1-0.2c-3.6,1.4-5.2,3.7-7.2,6.9
			c0-3.9-2.1-7.4-4-10.9c-1.8-3.3-3.1-6.8-3.9-10.4c-1-4.7-1.3-10-5-13.4C746.6,279.5,743,278.7,739.5,278z"/>
		<path class="st3" d="M711,357.8c-2.8,0.6-8.1,1.4-8.7,4.4c-0.7,3.4,1.2,8.7,1.8,12c1.6,8.1,3.8,16.1,6.6,24
			c1.9,5.2,4.1,10.4,8.4,14c3.6,3,8.2,4.5,12.6,6.4c4.4,1.8,7.3,4.3,9.5,8.3c0.6-5.4,3.6-11,10.9-18.3c1.7-1.7,3.7-4.4,4.9-6.5
			c2.8-5.3,2.4-52.7,0.6-52.6c-4.8,0.2-9.6,0.4-14.3,0.7c-12.3,0.6-25.1,1.6-35.4,8c-0.7,0.5-1.5,1-2.1,1.5c2.7-1.8,5.7-3.4,8.9-4.3
			"/>
	</g>
</g>
</svg>
